<svg width="70" height="70" viewBox="0 0 70 70" fill="none" xmlns="http://www.w3.org/2000/svg">
<path d="M57.4855 14C59.6055 14 60.6755 14.86 60.7455 16.43C60.8055 17.76 60.6855 19.11 60.4855 20.43C59.1955 29.05 57.8655 37.66 56.5455 46.28C56.2355 48.29 56.0055 50.3 55.6555 52.3C55.4955 53.17 55.2055 54.05 54.8155 54.85C53.9555 56.64 52.4755 57.35 50.5755 56.77C49.3955 56.41 48.2255 55.86 47.1955 55.19C42.4355 52.05 37.7155 48.85 32.9955 45.65C31.2955 44.5 31.0155 42.76 32.3455 41.21C33.2055 40.21 34.2355 39.36 35.1955 38.46C38.3455 35.49 41.5055 32.54 44.6355 29.57C45.6455 28.61 46.6155 27.61 47.5755 26.6C48.1455 26 48.2455 25.44 47.9255 25.05C47.5855 24.65 46.9755 24.63 46.2855 25.09C43.6155 26.87 40.9455 28.66 38.2855 30.47C34.4055 33.11 30.5455 35.79 26.6455 38.41C25.3855 39.26 23.9955 39.92 22.4455 40.06C21.8055 40.12 21.1255 40.14 20.5055 39.98C17.6355 39.25 14.7755 38.47 11.9155 37.67C11.2555 37.49 10.6055 37.23 10.0055 36.9C8.79552 36.23 8.65552 35.15 9.70552 34.25C10.2455 33.79 10.8955 33.42 11.5455 33.13C17.8455 30.37 24.1455 27.58 30.4855 24.9C38.5855 21.48 46.7155 18.14 54.8455 14.81C55.8455 14.4 56.9255 14.19 57.4655 14.03L57.4855 14Z" fill="white"/>
</svg>
