<svg width="70" height="70" viewBox="0 0 70 70" fill="none" xmlns="http://www.w3.org/2000/svg">
<path d="M12 56.2C12.06 56.16 12.12 56.12 12.16 56.07C16.39 51.51 20.61 46.94 24.84 42.38C26.35 40.74 27.87 39.11 29.38 37.47C29.43 37.42 29.47 37.37 29.53 37.3C23.74 29.55 17.94 21.8 12.11 14C12.24 14 12.32 14 12.4 14C16.71 14 21.02 14 25.34 14C25.5 14 25.6 14.04 25.69 14.17C28.94 18.52 32.19 22.86 35.44 27.21C35.95 27.89 36.45 28.56 36.98 29.27C37.11 29.13 37.24 28.99 37.36 28.86C40.49 25.48 43.62 22.1 46.74 18.72C48.15 17.2 49.56 15.68 50.97 14.16C51.04 14.08 51.16 14.01 51.26 14.01C52.47 14 53.69 14.01 54.91 14.01C54.94 14.01 54.97 14.01 55.05 14.03C49.6 19.92 44.17 25.78 38.74 31.65C44.87 39.85 51 48.03 57.14 56.25C57.03 56.25 56.97 56.26 56.91 56.26C52.58 56.26 48.24 56.26 43.91 56.26C43.77 56.26 43.68 56.23 43.59 56.11C40.98 52.61 38.37 49.12 35.76 45.63C34.33 43.71 32.9 41.8 31.46 39.88C31.42 39.82 31.37 39.76 31.31 39.69C31.25 39.74 31.2 39.79 31.15 39.84C28.68 42.51 26.2 45.19 23.73 47.86C21.18 50.62 18.62 53.38 16.06 56.14C16 56.21 15.89 56.26 15.8 56.26C14.53 56.26 13.27 56.26 12 56.26C12 56.25 12 56.23 12 56.22L12 56.2ZM51.32 53.34C51.24 53.23 51.19 53.16 51.15 53.1C47.8 48.62 44.45 44.15 41.11 39.67C35.48 32.15 29.85 24.62 24.23 17.09C24.13 16.96 24.03 16.91 23.86 16.91C21.97 16.91 20.08 16.91 18.19 16.91H17.93C18.03 17.05 18.1 17.15 18.18 17.25C20.47 20.31 22.76 23.37 25.04 26.43C31.7 35.34 38.36 44.24 45.02 53.15C45.12 53.29 45.23 53.35 45.4 53.35C47.28 53.35 49.16 53.35 51.04 53.35C51.11 53.35 51.18 53.35 51.31 53.35L51.32 53.34Z" fill="white"/>
</svg>
